<svg width="128" height="128" xmlns="http://www.w3.org/2000/svg" xmlns:svg="http://www.w3.org/2000/svg" class="header__svg-logo header__svg-logo">
  <defs>
    <style>
      path { fill: #2684ff; }
      /* .header__svg-logo__icon--path--3 { fill: #2684ff; } */
      /* .header__svg-logo__icon--path--4 { fill: url(#logo-gradient); } */
    </style>
    <!-- <linearGradient id="logo-gradient" x1="64.01" y1="65.26" x2="32.99" y2="89.48" gradientUnits="userSpaceOnUse">
      <stop offset="0.18" stop-color="#0052cc"></stop>
      <stop offset="1" stop-color="#2684ff"></stop>
    </linearGradient> -->
  </defs>
  <title>Bitbucket logo</title>
  <g class="header__svg-logo__icon" id="svg_1">
    <path class="header__svg-logo__icon--path--3" d="m7.881695,10.250155a3.857737,3.857737 0 0 0 -3.857737,4.474974l16.376092,99.413872a5.246522,5.246522 0 0 0 5.13079,4.378531l78.562806,0a3.857737,3.857737 0 0 0 3.857737,-3.240499l16.414669,-100.513327a3.857737,3.857737 0 0 0 -3.857737,-4.474974l-112.62662,-0.038577zm68.957042,71.850344l-25.075288,0l-6.789616,-35.452599l37.940839,0l-6.075935,35.452599z" id="svg_2" />
    <path class="header__svg-logo__icon--path--4" d="m119.119529,46.647899l-36.204858,0l-6.075935,35.452599l-25.075288,0l-29.608128,35.163269a5.227233,5.227233 0 0 0 3.37552,1.273053l78.582094,0a3.857737,3.857737 0 0 0 3.857737,-3.240499l11.148859,-68.648423z" id="svg_3" />
  </g>
</svg>
